<?xml version="1.0" standalone="no"?>
<svg xmlns="http://www.w3.org/2000/svg" viewBox="0 0 118 63" width="118" height="63"><g fill="#ff8888" color="#ff8888" transform="translate(45.5 0) scale(0.6078432) "><svg width="44.0" height="51.0" x="0.0" y="0.0" viewBox="0 0 44 51"><path fill="currentColor" fill-rule="evenodd" d="M21.998 0L0 12.571v25.143l4.19 2.395V15.002L21.999 4.827 39.81 15.002v20.28L21.998 45.459l-9.427-5.388V19.865l9.427-5.386 9.43 5.386v10.553l-9.43 5.387-1.045-.597V24.73l5.268-3.012-4.223-2.413-5.236 2.994v15.34l5.236 2.993 13.62-7.784V17.435l-13.62-7.781-13.617 7.78v25.068l13.617 7.784L44 37.714V12.571z"></path></svg></g><line x1="46.30180392156863" y1="37" x2="71.44219607843137" y2="37" stroke="#0b0cac" stroke-linecap="round"></line><path fill="#0b0cac" fill-rule="nonzero" d="M6.96 5.76L6.96 8.14L4.42 8.14L4.42 18.94L1.30 18.94L1.30 8.14L0 8.14L0 5.76L1.30 5.76L1.30 4.44Q1.30 2.98 2.23 1.92Q3.17 0.86 4.94 0.86L4.94 0.86L6.96 0.86L6.96 3.50L5.50 3.50Q4.42 3.50 4.42 4.63L4.42 4.63L4.42 5.76L6.96 5.76ZM18.79 5.14L18.79 18.94L16.70 18.94L15.74 17.28L12.41 19.08Q9.62 19.08 8.66 17.06L8.66 17.06Q8.18 16.08 8.00 14.94Q7.82 13.80 7.82 12.56Q7.82 11.33 7.85 10.74Q7.87 10.15 7.97 9.37Q8.06 8.59 8.24 8.06Q8.42 7.54 8.76 6.97Q9.10 6.41 9.58 6.07L9.58 6.07Q10.66 5.33 12.38 5.33L12.38 5.33L15.67 5.33L18.79 5.14ZM13.30 15.79L15.67 14.57L15.67 8.14L13.30 8.14Q11.98 8.14 11.46 9.14Q10.94 10.15 10.94 12.16Q10.94 14.16 11.44 14.98Q11.93 15.79 13.30 15.79L13.30 15.79ZM29.18 13.92L29.18 13.92L32.02 13.90Q31.99 14.09 31.97 14.59Q31.94 15.10 31.93 15.28Q31.92 15.46 31.87 15.84Q31.82 16.22 31.76 16.40Q31.70 16.58 31.61 16.87L31.61 16.87Q31.18 18.12 29.26 18.84L29.26 18.84Q28.03 19.27 26.70 19.27Q25.37 19.27 24.29 18.84Q23.21 18.41 22.58 17.74L22.58 17.74Q21.17 16.25 21.17 12.16Q21.17 8.06 22.58 6.58L22.58 6.58Q23.21 5.90 24.29 5.47Q25.37 5.04 26.69 5.04L26.69 5.04Q29.28 5.04 30.62 6.34Q31.97 7.63 31.97 9.94L31.97 9.94L29.14 9.94Q29.14 8.88 28.61 8.36Q28.08 7.85 26.65 7.85Q25.22 7.85 24.76 8.74Q24.29 9.62 24.29 11.40L24.29 11.40L24.29 12.65Q24.29 15.50 25.39 16.15L25.39 16.15Q25.90 16.46 26.71 16.46Q27.53 16.46 28.04 16.31Q28.56 16.15 28.79 15.77Q29.02 15.38 29.09 15.01Q29.16 14.64 29.18 13.92ZM36.22 0Q37.34 0 37.68 0.35Q38.02 0.70 38.02 1.81Q38.02 2.93 37.67 3.28Q37.32 3.62 36.20 3.62Q35.09 3.62 34.74 3.26Q34.39 2.90 34.39 1.80Q34.39 0.70 34.74 0.35Q35.09 0 36.22 0ZM37.75 5.74L37.75 18.94L34.63 18.94L34.63 5.74L37.75 5.74ZM50.66 5.14L50.66 18.94L48.58 18.94L47.62 17.28L44.28 19.08Q41.50 19.08 40.54 17.06L40.54 17.06Q40.06 16.08 39.88 14.94Q39.70 13.80 39.70 12.56Q39.70 11.33 39.72 10.74Q39.74 10.15 39.84 9.37Q39.94 8.59 40.12 8.06Q40.30 7.54 40.63 6.97Q40.97 6.41 41.45 6.07L41.45 6.07Q42.53 5.33 44.26 5.33L44.26 5.33L47.54 5.33L50.66 5.14ZM45.17 15.79L47.54 14.57L47.54 8.14L45.17 8.14Q43.85 8.14 43.33 9.14Q42.82 10.15 42.82 12.16Q42.82 14.16 43.31 14.98Q43.80 15.79 45.17 15.79L45.17 15.79ZM57.05 0.89L57.05 18.94L53.93 18.96L53.93 0.89L57.05 0.89ZM71.76 1.85L71.76 4.82L67.18 4.82L67.18 18.94L63.84 18.94L63.84 4.82L59.28 4.82L59.28 1.85L71.76 1.85ZM84.38 12.82L84.38 12.82L76.39 12.82Q76.39 14.69 76.98 15.55Q77.57 16.42 79.34 16.42L79.34 16.42Q80.50 16.42 81.05 15.68Q81.60 14.95 81.60 14.28L81.60 14.28L84.41 14.28Q84.41 16.85 83.03 18.05Q81.65 19.25 79.38 19.25Q77.11 19.25 75.86 18.60L75.86 18.60Q73.30 17.28 73.30 11.59L73.30 11.59Q73.30 8.21 74.76 6.64Q76.22 5.06 79.22 5.06L79.22 5.06Q84.43 5.06 84.43 10.85L84.43 10.85Q84.43 11.47 84.38 12.82ZM76.46 10.68L76.46 10.68L81.60 10.68Q81.60 9.10 81 8.38Q80.40 7.66 79.16 7.66Q77.93 7.66 77.20 8.39Q76.46 9.12 76.46 10.68ZM96.70 5.14L96.70 18.94L94.61 18.94L93.65 17.28L90.31 19.08Q87.53 19.08 86.57 17.06L86.57 17.06Q86.09 16.08 85.91 14.94Q85.73 13.80 85.73 12.56Q85.73 11.33 85.75 10.74Q85.78 10.15 85.87 9.37Q85.97 8.59 86.15 8.06Q86.33 7.54 86.66 6.97Q87 6.41 87.48 6.07L87.48 6.07Q88.56 5.33 90.29 5.33L90.29 5.33L93.58 5.33L96.70 5.14ZM91.20 15.79L93.58 14.57L93.58 8.14L91.20 8.14Q89.88 8.14 89.36 9.14Q88.85 10.15 88.85 12.16Q88.85 14.16 89.34 14.98Q89.83 15.79 91.20 15.79L91.20 15.79ZM117.74 9.74L117.74 18.94L114.62 18.94L114.62 10.42Q114.62 9.14 114.32 8.64Q114.02 8.14 113.28 8.14L113.28 8.14L110.47 9.31L110.47 18.94L107.35 18.94L107.35 10.42Q107.35 8.14 105.77 8.14L105.77 8.14L103.20 9.31L103.20 18.94L100.08 18.94L100.08 5.23L102.41 5.23L103.13 6.86L106.73 5.09Q108.60 5.09 109.56 6.91L109.56 6.91L114.02 5.09Q115.90 5.09 116.82 6.35Q117.74 7.61 117.74 9.74L117.74 9.74Z" transform="translate(0, 43)"></path></svg>